<svg xmlns="http://www.w3.org/2000/svg" xmlns:xlink="http://www.w3.org/1999/xlink" width="500" zoomAndPan="magnify" viewBox="0 0 375 374.999991" height="500" preserveAspectRatio="xMidYMid meet" version="1.0"><defs><g/><clipPath id="a29d99ab69"><path d="M 42.574219 42.574219 L 332.425781 42.574219 L 332.425781 332.425781 L 42.574219 332.425781 Z M 42.574219 42.574219 " clip-rule="nonzero"/></clipPath><clipPath id="54e796ab71"><path d="M 187.5 42.574219 C 107.460938 42.574219 42.574219 107.460938 42.574219 187.5 C 42.574219 267.539062 107.460938 332.425781 187.5 332.425781 C 267.539062 332.425781 332.425781 267.539062 332.425781 187.5 C 332.425781 107.460938 267.539062 42.574219 187.5 42.574219 Z M 187.5 42.574219 " clip-rule="nonzero"/></clipPath><clipPath id="41d567d8a7"><path d="M 42.574219 42.574219 L 332.074219 42.574219 L 332.074219 332.074219 L 42.574219 332.074219 Z M 42.574219 42.574219 " clip-rule="nonzero"/></clipPath><clipPath id="7dd2df3d93"><path d="M 187.496094 42.574219 C 107.457031 42.574219 42.574219 107.457031 42.574219 187.496094 C 42.574219 267.53125 107.457031 332.414062 187.496094 332.414062 C 267.53125 332.414062 332.414062 267.53125 332.414062 187.496094 C 332.414062 107.457031 267.53125 42.574219 187.496094 42.574219 Z M 187.496094 42.574219 " clip-rule="nonzero"/></clipPath><clipPath id="c2580c2e57"><path d="M 57.832031 57.832031 L 317.167969 57.832031 L 317.167969 317.167969 L 57.832031 317.167969 Z M 57.832031 57.832031 " clip-rule="nonzero"/></clipPath><clipPath id="59525f7259"><path d="M 187.5 57.832031 C 115.886719 57.832031 57.832031 115.886719 57.832031 187.5 C 57.832031 259.113281 115.886719 317.167969 187.5 317.167969 C 259.113281 317.167969 317.167969 259.113281 317.167969 187.5 C 317.167969 115.886719 259.113281 57.832031 187.5 57.832031 Z M 187.5 57.832031 " clip-rule="nonzero"/></clipPath><clipPath id="52490efa3c"><path d="M 94.574219 94.574219 L 280.425781 94.574219 L 280.425781 280.425781 L 94.574219 280.425781 Z M 94.574219 94.574219 " clip-rule="nonzero"/></clipPath><clipPath id="72d702563c"><path d="M 187.5 94.574219 C 136.179688 94.574219 94.574219 136.179688 94.574219 187.5 C 94.574219 238.820312 136.179688 280.425781 187.5 280.425781 C 238.820312 280.425781 280.425781 238.820312 280.425781 187.5 C 280.425781 136.179688 238.820312 94.574219 187.5 94.574219 Z M 187.5 94.574219 " clip-rule="nonzero"/></clipPath><clipPath id="7ba2c20a21"><path d="M 94.574219 94.574219 L 280.421875 94.574219 L 280.421875 280.421875 L 94.574219 280.421875 Z M 94.574219 94.574219 " clip-rule="nonzero"/></clipPath><clipPath id="899e914b0e"><path d="M 187.496094 94.574219 C 136.175781 94.574219 94.574219 136.175781 94.574219 187.496094 C 94.574219 238.816406 136.175781 280.421875 187.496094 280.421875 C 238.816406 280.421875 280.421875 238.816406 280.421875 187.496094 C 280.421875 136.175781 238.816406 94.574219 187.496094 94.574219 Z M 187.496094 94.574219 " clip-rule="nonzero"/></clipPath><clipPath id="d8f8f43f29"><path d="M 109.28125 109.28125 L 265.71875 109.28125 L 265.71875 265.71875 L 109.28125 265.71875 Z M 109.28125 109.28125 " clip-rule="nonzero"/></clipPath><clipPath id="345482bd2b"><path d="M 187.5 109.28125 C 144.300781 109.28125 109.28125 144.300781 109.28125 187.5 C 109.28125 230.699219 144.300781 265.71875 187.5 265.71875 C 230.699219 265.71875 265.71875 230.699219 265.71875 187.5 C 265.71875 144.300781 230.699219 109.28125 187.5 109.28125 Z M 187.5 109.28125 " clip-rule="nonzero"/></clipPath><clipPath id="7a95a2ea3c"><path d="M 109.28125 109.28125 L 265.714844 109.28125 L 265.714844 265.714844 L 109.28125 265.714844 Z M 109.28125 109.28125 " clip-rule="nonzero"/></clipPath><clipPath id="560fc9aad0"><path d="M 187.496094 109.28125 C 144.300781 109.28125 109.28125 144.300781 109.28125 187.496094 C 109.28125 230.695312 144.300781 265.714844 187.496094 265.714844 C 230.695312 265.714844 265.714844 230.695312 265.714844 187.496094 C 265.714844 144.300781 230.695312 109.28125 187.496094 109.28125 Z M 187.496094 109.28125 " clip-rule="nonzero"/></clipPath><clipPath id="6c56900e07"><path d="M 60.453125 168.226562 L 102.386719 168.226562 L 102.386719 206.773438 L 60.453125 206.773438 Z M 60.453125 168.226562 " clip-rule="nonzero"/></clipPath><clipPath id="be835fd4a8"><path d="M 272.714844 168.226562 L 314.644531 168.226562 L 314.644531 206.773438 L 272.714844 206.773438 Z M 272.714844 168.226562 " clip-rule="nonzero"/></clipPath><clipPath id="c516e16e4d"><path d="M 140 133.007812 L 196 133.007812 L 196 189 L 140 189 Z M 140 133.007812 " clip-rule="nonzero"/></clipPath><clipPath id="00ba39e34f"><path d="M 179 190 L 227 190 L 227 241.757812 L 179 241.757812 Z M 179 190 " clip-rule="nonzero"/></clipPath><clipPath id="06ad541315"><path d="M 167 200 L 209 200 L 209 241.757812 L 167 241.757812 Z M 167 200 " clip-rule="nonzero"/></clipPath><clipPath id="213ba2a53c"><path d="M 152 133.007812 L 235.136719 133.007812 L 235.136719 233 L 152 233 Z M 152 133.007812 " clip-rule="nonzero"/></clipPath><clipPath id="2060c6181b"><path d="M 146 133.007812 L 215 133.007812 L 215 206 L 146 206 Z M 146 133.007812 " clip-rule="nonzero"/></clipPath></defs><g clip-path="url(#a29d99ab69)"><g clip-path="url(#54e796ab71)"><path fill="#ffffff" d="M 42.574219 42.574219 L 332.425781 42.574219 L 332.425781 332.425781 L 42.574219 332.425781 Z M 42.574219 42.574219 " fill-opacity="1" fill-rule="nonzero"/></g></g><g clip-path="url(#41d567d8a7)"><g clip-path="url(#7dd2df3d93)"><path stroke-linecap="butt" transform="matrix(0.75, 0, 0, 0.75, 42.575947, 42.575942)" fill="none" stroke-linejoin="miter" d="M 193.226876 -0.00229767 C 86.508119 -0.00229767 -0.00230367 86.508125 -0.00230367 193.226882 C -0.00230367 299.94043 86.508119 386.450853 193.226876 386.450853 C 299.940424 386.450853 386.450847 299.94043 386.450847 193.226882 C 386.450847 86.508125 299.940424 -0.00229767 193.226876 -0.00229767 Z M 193.226876 -0.00229767 " stroke="#000000" stroke-width="28" stroke-opacity="1" stroke-miterlimit="4"/></g></g><g clip-path="url(#c2580c2e57)"><g clip-path="url(#59525f7259)"><path fill="#ffffff" d="M 57.832031 57.832031 L 317.167969 57.832031 L 317.167969 317.167969 L 57.832031 317.167969 Z M 57.832031 57.832031 " fill-opacity="1" fill-rule="nonzero"/><path stroke-linecap="butt" transform="matrix(0.75, 0, 0, 0.75, 57.831526, 57.831522)" fill="none" stroke-linejoin="miter" d="M 172.89131 0.000679264 C 77.406928 0.000679264 0.000673264 77.406934 0.000673264 172.891316 C 0.000673264 268.375697 77.406928 345.781952 172.89131 345.781952 C 268.375691 345.781952 345.781946 268.375697 345.781946 172.891316 C 345.781946 77.406934 268.375691 0.000679264 172.89131 0.000679264 Z M 172.89131 0.000679264 " stroke="#000000" stroke-width="8" stroke-opacity="1" stroke-miterlimit="4"/></g></g><g clip-path="url(#52490efa3c)"><g clip-path="url(#72d702563c)"><path fill="#ffffff" d="M 94.574219 94.574219 L 280.425781 94.574219 L 280.425781 280.425781 L 94.574219 280.425781 Z M 94.574219 94.574219 " fill-opacity="1" fill-rule="nonzero"/></g></g><g clip-path="url(#7ba2c20a21)"><g clip-path="url(#899e914b0e)"><path stroke-linecap="butt" transform="matrix(0.75, 0, 0, 0.75, 94.573885, 94.57388)" fill="none" stroke-linejoin="miter" d="M 123.896295 0.000451414 C 55.469203 0.000451414 0.000445414 55.469209 0.000445414 123.896301 C 0.000445414 192.323393 55.469203 247.797359 123.896295 247.797359 C 192.323387 247.797359 247.797353 192.323393 247.797353 123.896301 C 247.797353 55.469209 192.323387 0.000451414 123.896295 0.000451414 Z M 123.896295 0.000451414 " stroke="#000000" stroke-width="28" stroke-opacity="1" stroke-miterlimit="4"/></g></g><g clip-path="url(#d8f8f43f29)"><g clip-path="url(#345482bd2b)"><path fill="#ffffff" d="M 109.28125 109.28125 L 265.71875 109.28125 L 265.71875 265.71875 L 109.28125 265.71875 Z M 109.28125 109.28125 " fill-opacity="1" fill-rule="nonzero"/></g></g><g clip-path="url(#7a95a2ea3c)"><g clip-path="url(#560fc9aad0)"><path stroke-linecap="butt" transform="matrix(0.75, 0, 0, 0.75, 109.281245, 109.28124)" fill="none" stroke-linejoin="miter" d="M 104.286472 0.0000133015 C 46.692719 0.0000133015 0.00000730151 46.692725 0.00000730151 104.286478 C 0.00000730151 161.885441 46.692719 208.578152 104.286472 208.578152 C 161.885435 208.578152 208.578146 161.885441 208.578146 104.286478 C 208.578146 46.692725 161.885435 0.0000133015 104.286472 0.0000133015 Z M 104.286472 0.0000133015 " stroke="#000000" stroke-width="8" stroke-opacity="1" stroke-miterlimit="4"/></g></g><g clip-path="url(#6c56900e07)"><path fill="#000000" d="M 60.453125 168.226562 L 102.316406 168.226562 L 102.316406 206.773438 L 60.453125 206.773438 Z M 60.453125 168.226562 " fill-opacity="1" fill-rule="nonzero"/></g><g clip-path="url(#be835fd4a8)"><path fill="#000000" d="M 272.714844 168.226562 L 314.578125 168.226562 L 314.578125 206.773438 L 272.714844 206.773438 Z M 272.714844 168.226562 " fill-opacity="1" fill-rule="nonzero"/></g><g clip-path="url(#c516e16e4d)"><path fill="#000000" d="M 142.949219 188.839844 C 141.492188 181.324219 148.191406 174.277344 148.261719 174.207031 L 148.265625 174.207031 L 195.164062 133.019531 L 184.589844 133.019531 L 146.152344 167.351562 C 141.894531 171.15625 139.902344 176.742188 140.824219 182.296875 C 141.339844 185.410156 142.453125 187.863281 142.949219 188.839844 " fill-opacity="1" fill-rule="nonzero"/></g><g clip-path="url(#00ba39e34f)"><path fill="#603813" d="M 179.390625 196.449219 L 216.3125 241.707031 L 226.296875 241.707031 L 185.320312 190.539062 L 179.390625 196.449219 " fill-opacity="1" fill-rule="nonzero"/></g><g clip-path="url(#06ad541315)"><path fill="#603813" d="M 167.882812 207.425781 L 195.4375 241.707031 L 208.527344 241.707031 L 175.085938 200.425781 L 167.882812 207.425781 " fill-opacity="1" fill-rule="nonzero"/></g><g clip-path="url(#213ba2a53c)"><path fill="#000000" d="M 172.234375 231.796875 C 172.152344 231.714844 172.066406 231.625 171.972656 231.535156 C 171.925781 231.484375 171.875 231.433594 171.824219 231.382812 C 171.765625 231.324219 171.707031 231.261719 171.644531 231.199219 C 171.59375 231.148438 171.546875 231.097656 171.496094 231.046875 C 170.039062 229.539062 167.796875 227.015625 165.785156 223.910156 C 164.328125 221.664062 162.746094 218.84375 161.796875 215.792969 C 160.957031 211.734375 162.234375 207.441406 165.207031 204.40625 L 235.132812 133.019531 L 221.902344 133.019531 L 158.804688 195.542969 C 157.863281 196.476562 144.378906 209.871094 161.246094 232.453125 L 172.921875 232.453125 C 172.789062 232.332031 172.566406 232.121094 172.277344 231.835938 L 172.234375 231.796875 " fill-opacity="1" fill-rule="nonzero"/></g><g clip-path="url(#2060c6181b)"><path fill="#000000" d="M 204.324219 133.015625 L 204.308594 133.027344 L 153.941406 179.875 L 152.609375 181.113281 C 149.140625 184.339844 146.867188 188.65625 146.28125 193.273438 L 146.277344 193.296875 C 146.234375 193.574219 146.203125 193.851562 146.191406 194.113281 L 146.191406 194.140625 C 146.128906 194.949219 146.113281 195.773438 146.152344 196.597656 C 146.300781 199.464844 147.089844 202.5625 149.042969 205.566406 C 149.042969 205.566406 148.183594 198.398438 152.207031 194.328125 L 214.773438 133.050781 L 214.808594 133.015625 L 204.324219 133.015625 " fill-opacity="1" fill-rule="nonzero"/></g><g fill="#000000" fill-opacity="1"><g transform="translate(91.344851, 157.960985)"><g><path d="M -1.578125 -8.65625 L 0.71875 -14.8125 L 4.9375 -13.234375 L 0.59375 -1.578125 L -19.21875 -8.984375 L -17.171875 -14.484375 Z M -1.578125 -8.65625 "/></g></g></g><g fill="#000000" fill-opacity="1"><g transform="translate(96.179409, 145.263967)"><g><path d="M -15.5 -16.265625 L 3.40625 -6.75 L 0.765625 -1.5 L -18.140625 -11.015625 Z M -15.5 -16.265625 "/></g></g></g><g fill="#000000" fill-opacity="1"><g transform="translate(99.206833, 138.032343)"><g><path d="M 8.09375 -11.65625 L -3.296875 -11.5 L 4.3125 -6.21875 L 0.96875 -1.390625 L -16.40625 -13.453125 L -13.0625 -18.28125 L -5.5625 -13.078125 L -9.3125 -23.65625 L -5.453125 -29.234375 L -1.4375 -17.015625 L 12.15625 -17.484375 Z M 8.09375 -11.65625 "/></g></g></g><g fill="#000000" fill-opacity="1"><g transform="translate(110.292235, 121.675211)"><g><path d="M 0.265625 -29.53125 L 14.890625 -14.25 L 10.640625 -10.1875 L 4.78125 -16.3125 L -0.390625 -11.359375 L 5.46875 -5.234375 L 1.21875 -1.171875 L -13.40625 -16.453125 L -9.15625 -20.515625 L -3.65625 -14.765625 L 1.515625 -19.71875 L -3.984375 -25.46875 Z M 0.265625 -29.53125 "/></g></g></g><g fill="#000000" fill-opacity="1"><g transform="translate(124.749234, 107.519588)"><g><path d="M 10.9375 -10.921875 L 4.578125 -6.9375 L 5.4375 -3.40625 L 0.203125 -0.125 L -4.5 -22.15625 L 1.25 -25.75 L 18.984375 -11.890625 L 13.734375 -8.59375 Z M 7.296875 -13.953125 L 1.734375 -18.546875 L 3.46875 -11.546875 Z M 7.296875 -13.953125 "/></g></g></g><g fill="#000000" fill-opacity="1"><g transform="translate(142.054903, 96.406796)"><g><path d="M 19.953125 -7.34375 L 14.4375 -5.3125 L 3.015625 -13.703125 L 7.09375 -2.609375 L 1.578125 -0.578125 L -5.71875 -20.4375 L -0.203125 -22.46875 L 11.265625 -13.9375 L 7.140625 -25.171875 L 12.65625 -27.203125 Z M 19.953125 -7.34375 "/></g></g></g><g fill="#000000" fill-opacity="1"><g transform="translate(161.561915, 89.016351)"><g><path d="M 12.984375 -16.21875 C 12.554688 -16.738281 12.03125 -17.101562 11.40625 -17.3125 C 10.78125 -17.519531 10.070312 -17.566406 9.28125 -17.453125 C 7.820312 -17.242188 6.738281 -16.597656 6.03125 -15.515625 C 5.320312 -14.441406 5.085938 -13.109375 5.328125 -11.515625 C 5.585938 -9.710938 6.234375 -8.40625 7.265625 -7.59375 C 8.304688 -6.789062 9.6875 -6.515625 11.40625 -6.765625 C 13.445312 -7.066406 14.773438 -8.195312 15.390625 -10.15625 L 9.53125 -9.3125 L 8.90625 -13.5 L 19.765625 -15.078125 L 20.59375 -9.4375 C 20.3125 -8.269531 19.800781 -7.132812 19.0625 -6.03125 C 18.320312 -4.925781 17.320312 -3.960938 16.0625 -3.140625 C 14.800781 -2.316406 13.3125 -1.78125 11.59375 -1.53125 C 9.488281 -1.226562 7.566406 -1.410156 5.828125 -2.078125 C 4.085938 -2.742188 2.65625 -3.816406 1.53125 -5.296875 C 0.414062 -6.785156 -0.289062 -8.570312 -0.59375 -10.65625 C -0.894531 -12.707031 -0.71875 -14.601562 -0.0625 -16.34375 C 0.582031 -18.082031 1.640625 -19.519531 3.109375 -20.65625 C 4.578125 -21.789062 6.363281 -22.515625 8.46875 -22.828125 C 11.09375 -23.210938 13.359375 -22.894531 15.265625 -21.875 C 17.171875 -20.851562 18.5 -19.273438 19.25 -17.140625 Z M 12.984375 -16.21875 "/></g></g></g><g fill="#000000" fill-opacity="1"><g transform="translate(182.737559, 86.389238)"><g/></g></g><g fill="#000000" fill-opacity="1"><g transform="translate(187.19619, 85.737971)"><g><path d="M 14.109375 1.546875 L 8.53125 -8.375 L 7.515625 0.828125 L 1.671875 0.1875 L 3.96875 -20.84375 L 9.8125 -20.203125 L 8.828125 -11.125 L 16.34375 -19.5 L 23.078125 -18.75 L 14.25 -9.390625 L 21.171875 2.3125 Z M 14.109375 1.546875 "/></g></g></g><g fill="#000000" fill-opacity="1"><g transform="translate(206.891517, 87.719693)"><g><path d="M 13.453125 -17.9375 L 9.765625 -6.234375 C 9.421875 -5.148438 9.40625 -4.226562 9.71875 -3.46875 C 10.039062 -2.71875 10.71875 -2.179688 11.75 -1.859375 C 12.78125 -1.535156 13.648438 -1.59375 14.359375 -2.03125 C 15.078125 -2.46875 15.609375 -3.21875 15.953125 -4.28125 L 19.640625 -15.984375 L 25.234375 -14.21875 L 21.546875 -2.515625 C 20.960938 -0.660156 20.078125 0.789062 18.890625 1.84375 C 17.703125 2.894531 16.328125 3.535156 14.765625 3.765625 C 13.210938 4.003906 11.617188 3.863281 9.984375 3.34375 C 8.335938 2.832031 6.972656 2.046875 5.890625 0.984375 C 4.816406 -0.078125 4.113281 -1.367188 3.78125 -2.890625 C 3.457031 -4.410156 3.59375 -6.109375 4.1875 -7.984375 L 7.875 -19.6875 Z M 13.453125 -17.9375 "/></g></g></g><g fill="#000000" fill-opacity="1"><g transform="translate(225.600259, 93.750975)"><g><path d="M 8.78125 -0.59375 L 14.625 2.375 L 12.59375 6.390625 L 1.5 0.765625 L 11.0625 -18.109375 L 16.3125 -15.453125 Z M 8.78125 -0.59375 "/></g></g></g><g fill="#000000" fill-opacity="1"><g transform="translate(237.486504, 99.504547)"><g><path d="M 26.609375 -7.03125 L 23.890625 -3.21875 L 19.296875 -6.484375 L 9.75 6.9375 L 4.96875 3.53125 L 14.515625 -9.890625 L 9.96875 -13.125 L 12.6875 -16.9375 Z M 26.609375 -7.03125 "/></g></g></g><g fill="#000000" fill-opacity="1"><g transform="translate(250.954379, 108.700954)"><g><path d="M 20.328125 -9.453125 L 11.53125 -0.875 C 10.71875 -0.0820312 10.273438 0.71875 10.203125 1.53125 C 10.140625 2.351562 10.484375 3.148438 11.234375 3.921875 C 11.984375 4.691406 12.773438 5.050781 13.609375 5 C 14.453125 4.957031 15.269531 4.546875 16.0625 3.765625 L 24.859375 -4.8125 L 28.96875 -0.609375 L 20.171875 7.96875 C 18.785156 9.320312 17.316406 10.179688 15.765625 10.546875 C 14.210938 10.921875 12.695312 10.84375 11.21875 10.3125 C 9.75 9.78125 8.414062 8.898438 7.21875 7.671875 C 6.019531 6.441406 5.191406 5.101562 4.734375 3.65625 C 4.285156 2.21875 4.273438 0.75 4.703125 -0.75 C 5.140625 -2.25 6.054688 -3.6875 7.453125 -5.0625 L 16.25 -13.640625 Z M 20.328125 -9.453125 "/></g></g></g><g fill="#000000" fill-opacity="1"><g transform="translate(264.617022, 122.548455)"><g><path d="M 6.859375 10.328125 L 11.03125 2.515625 L 10.6875 1.984375 L 4.1875 6.296875 L 0.9375 1.40625 L 18.5625 -10.296875 L 23.6875 -2.578125 C 24.625 -1.160156 25.171875 0.203125 25.328125 1.515625 C 25.492188 2.828125 25.3125 4.015625 24.78125 5.078125 C 24.257812 6.148438 23.460938 7.039062 22.390625 7.75 C 21.191406 8.550781 19.914062 8.921875 18.5625 8.859375 C 17.21875 8.804688 15.9375 8.269531 14.71875 7.25 L 10.484375 15.78125 Z M 14.03125 -0.234375 L 15.640625 2.1875 C 16.078125 2.851562 16.566406 3.242188 17.109375 3.359375 C 17.648438 3.484375 18.222656 3.347656 18.828125 2.953125 C 19.390625 2.578125 19.71875 2.109375 19.8125 1.546875 C 19.914062 0.992188 19.753906 0.390625 19.328125 -0.265625 L 17.71875 -2.6875 Z M 14.03125 -0.234375 "/></g></g></g><g fill="#000000" fill-opacity="1"><g transform="translate(274.784138, 137.2679)"><g><path d="M 8.953125 12.578125 L 6.078125 5.65625 L 2.453125 5.9375 L 0.09375 0.21875 L 22.59375 -0.765625 L 25.1875 5.5 L 8.59375 20.703125 L 6.203125 14.96875 Z M 12.546875 9.515625 L 18 4.78125 L 10.8125 5.328125 Z M 12.546875 9.515625 "/></g></g></g><g fill="#000000" fill-opacity="1"><g transform="translate(77.655842, 220.180078)"><g><path d="M 2.921875 8.984375 L 7.453125 2.890625 L 1.5625 4.796875 L 0.34375 1.0625 L 13.75 -3.296875 L 14.96875 0.4375 L 9.1875 2.3125 L 16.3125 4.59375 L 17.71875 8.890625 L 9.609375 6.09375 L 4.390625 13.5 Z M 2.921875 8.984375 "/></g></g></g><g fill="#000000" fill-opacity="1"><g transform="translate(82.445298, 234.778114)"><g><path d="M 6.453125 8.03125 L 4.265625 3.53125 L 1.875 3.84375 L 0.0625 0.140625 L 14.984375 -1.390625 L 16.96875 2.671875 L 6.53125 13.4375 L 4.71875 9.703125 Z M 8.734375 5.84375 L 12.15625 2.46875 L 7.40625 3.125 Z M 8.734375 5.84375 "/></g></g></g><g fill="#000000" fill-opacity="1"><g transform="translate(89.480818, 249.098859)"><g><path d="M 19.359375 3.515625 L 7.671875 11.390625 L 5.484375 8.140625 L 10.171875 4.984375 L 7.5 1.03125 L 2.8125 4.1875 L 0.625 0.9375 L 12.3125 -6.9375 L 14.5 -3.6875 L 10.109375 -0.71875 L 12.78125 3.234375 L 17.171875 0.265625 Z M 19.359375 3.515625 "/></g></g></g><g fill="#000000" fill-opacity="1"><g transform="translate(98.298192, 262.105674)"><g><path d="M 8.421875 5.9375 L 5.078125 2.21875 L 2.859375 3.1875 L 0.109375 0.109375 L 14.03125 -5.484375 L 17.046875 -2.125 L 9.984375 11.109375 L 7.21875 8.03125 Z M 10 3.1875 L 12.375 -0.984375 L 7.984375 0.953125 Z M 10 3.1875 "/></g></g></g><g fill="#000000" fill-opacity="1"><g transform="translate(109.011685, 273.834885)"><g><path d="M 15.4375 0.84375 C 14.882812 1.488281 14.226562 1.953125 13.46875 2.234375 C 12.707031 2.515625 11.890625 2.550781 11.015625 2.34375 C 10.148438 2.144531 9.28125 1.671875 8.40625 0.921875 L 6.9375 -0.34375 L 3.828125 3.28125 L 0.859375 0.734375 L 10.03125 -9.96875 L 14.46875 -6.15625 C 15.332031 -5.414062 15.9375 -4.632812 16.28125 -3.8125 C 16.625 -3 16.71875 -2.191406 16.5625 -1.390625 C 16.40625 -0.597656 16.03125 0.144531 15.4375 0.84375 Z M 10.125 -1.6875 C 10.976562 -0.96875 11.738281 -0.992188 12.40625 -1.765625 C 13.070312 -2.535156 12.976562 -3.28125 12.125 -4 L 10.953125 -5.015625 L 8.953125 -2.703125 Z M 10.125 -1.6875 "/></g></g></g><g fill="#000000" fill-opacity="1"><g transform="translate(119.256485, 282.684494)"><g><path d="M 6.53125 4.421875 C 5.425781 3.703125 4.578125 2.78125 3.984375 1.65625 C 3.390625 0.53125 3.117188 -0.664062 3.171875 -1.9375 C 3.234375 -3.21875 3.640625 -4.441406 4.390625 -5.609375 C 5.148438 -6.773438 6.097656 -7.640625 7.234375 -8.203125 C 8.378906 -8.773438 9.582031 -9.015625 10.84375 -8.921875 C 12.113281 -8.828125 13.300781 -8.421875 14.40625 -7.703125 C 15.519531 -6.984375 16.375 -6.066406 16.96875 -4.953125 C 17.5625 -3.835938 17.820312 -2.644531 17.75 -1.375 C 17.6875 -0.113281 17.273438 1.097656 16.515625 2.265625 C 15.765625 3.429688 14.820312 4.300781 13.6875 4.875 C 12.5625 5.457031 11.363281 5.707031 10.09375 5.625 C 8.820312 5.539062 7.632812 5.140625 6.53125 4.421875 Z M 8.515625 1.359375 C 9.347656 1.898438 10.1875 2.054688 11.03125 1.828125 C 11.875 1.597656 12.59375 1.023438 13.1875 0.109375 C 13.800781 -0.828125 14.039062 -1.722656 13.90625 -2.578125 C 13.769531 -3.441406 13.285156 -4.144531 12.453125 -4.6875 C 11.597656 -5.238281 10.753906 -5.398438 9.921875 -5.171875 C 9.085938 -4.941406 8.363281 -4.359375 7.75 -3.421875 C 7.15625 -2.492188 6.921875 -1.601562 7.046875 -0.75 C 7.171875 0.101562 7.660156 0.804688 8.515625 1.359375 Z M 8.515625 1.359375 "/></g></g></g><g fill="#000000" fill-opacity="1"><g transform="translate(133.242583, 291.672858)"><g><path d="M 12.890625 5.9375 L 9.328125 4.296875 L 7.875 -5.046875 L 4.578125 2.109375 L 1.015625 0.46875 L 6.90625 -12.328125 L 10.46875 -10.6875 L 11.890625 -1.265625 L 15.21875 -8.5 L 18.78125 -6.859375 Z M 12.890625 5.9375 "/></g></g></g><g fill="#000000" fill-opacity="1"><g transform="translate(147.789024, 298.085288)"><g><path d="M 6.140625 -1.4375 L 2.21875 3.390625 L -0.125 2.578125 L 2.765625 -2.59375 Z M 6.140625 -1.4375 "/></g></g></g><g fill="#000000" fill-opacity="1"><g transform="translate(154.005656, 300.181528)"><g/></g></g><g fill="#000000" fill-opacity="1"><g transform="translate(158.137297, 301.625455)"><g><path d="M 13.921875 2.734375 L 10.078125 1.984375 L 6.46875 -6.765625 L 4.953125 0.96875 L 1.109375 0.21875 L 3.828125 -13.609375 L 7.671875 -12.859375 L 11.265625 -4.03125 L 12.796875 -11.84375 L 16.640625 -11.09375 Z M 13.921875 2.734375 "/></g></g></g><g fill="#000000" fill-opacity="1"><g transform="translate(174.014462, 304.681074)"><g><path d="M 10.609375 -8.90625 C 10.390625 -9.289062 10.085938 -9.59375 9.703125 -9.8125 C 9.328125 -10.039062 8.875 -10.171875 8.34375 -10.203125 C 7.351562 -10.253906 6.5625 -9.972656 5.96875 -9.359375 C 5.375 -8.753906 5.050781 -7.910156 5 -6.828125 C 4.9375 -5.628906 5.1875 -4.691406 5.75 -4.015625 C 6.3125 -3.347656 7.175781 -2.988281 8.34375 -2.9375 C 9.707031 -2.863281 10.71875 -3.429688 11.375 -4.640625 L 7.4375 -4.84375 L 7.59375 -7.65625 L 14.90625 -7.28125 L 14.703125 -3.484375 C 14.359375 -2.753906 13.875 -2.078125 13.25 -1.453125 C 12.625 -0.828125 11.847656 -0.332031 10.921875 0.03125 C 9.992188 0.40625 8.945312 0.5625 7.78125 0.5 C 6.382812 0.425781 5.15625 0.0625 4.09375 -0.59375 C 3.039062 -1.257812 2.242188 -2.148438 1.703125 -3.265625 C 1.171875 -4.390625 0.941406 -5.644531 1.015625 -7.03125 C 1.085938 -8.414062 1.445312 -9.632812 2.09375 -10.6875 C 2.75 -11.75 3.628906 -12.550781 4.734375 -13.09375 C 5.847656 -13.644531 7.109375 -13.882812 8.515625 -13.8125 C 10.285156 -13.71875 11.726562 -13.210938 12.84375 -12.296875 C 13.957031 -11.390625 14.617188 -10.1875 14.828125 -8.6875 Z M 10.609375 -8.90625 "/></g></g></g><g fill="#000000" fill-opacity="1"><g transform="translate(189.998566, 305.454864)"><g><path d="M 9.796875 -3.171875 L 4.828125 -2.734375 L 4.265625 -0.375 L 0.15625 -0.015625 L 4.03125 -14.5 L 8.53125 -14.90625 L 14.875 -1.328125 L 10.75 -0.953125 Z M 8.5625 -6.078125 L 6.640625 -10.5 L 5.546875 -5.8125 Z M 8.5625 -6.078125 "/></g></g></g><g fill="#000000" fill-opacity="1"><g transform="translate(205.854022, 303.948563)"><g><path d="M 10.453125 -16.84375 L 7.765625 -6.375 L 8.765625 -2 L 4.921875 -1.125 L 3.921875 -5.5 L -3.0625 -13.75 L 1.3125 -14.75 L 4.953125 -10 L 6.140625 -15.859375 Z M 10.453125 -16.84375 "/></g></g></g><g fill="#000000" fill-opacity="1"><g transform="translate(220.353155, 300.635505)"><g><path d="M 7.40625 -2.671875 C 6.175781 -2.203125 4.929688 -2.0625 3.671875 -2.25 C 2.421875 -2.4375 1.296875 -2.925781 0.296875 -3.71875 C -0.691406 -4.519531 -1.429688 -5.566406 -1.921875 -6.859375 C -2.421875 -8.171875 -2.5625 -9.453125 -2.34375 -10.703125 C -2.132812 -11.960938 -1.617188 -13.070312 -0.796875 -14.03125 C 0.015625 -14.988281 1.035156 -15.703125 2.265625 -16.171875 C 3.515625 -16.648438 4.765625 -16.800781 6.015625 -16.625 C 7.265625 -16.445312 8.378906 -15.957031 9.359375 -15.15625 C 10.347656 -14.351562 11.09375 -13.296875 11.59375 -11.984375 C 12.082031 -10.691406 12.222656 -9.421875 12.015625 -8.171875 C 11.816406 -6.921875 11.304688 -5.804688 10.484375 -4.828125 C 9.671875 -3.859375 8.644531 -3.140625 7.40625 -2.671875 Z M 6.109375 -6.0625 C 7.046875 -6.414062 7.671875 -7 7.984375 -7.8125 C 8.296875 -8.632812 8.257812 -9.554688 7.875 -10.578125 C 7.46875 -11.628906 6.878906 -12.351562 6.109375 -12.75 C 5.335938 -13.144531 4.484375 -13.164062 3.546875 -12.8125 C 2.597656 -12.457031 1.972656 -11.875 1.671875 -11.0625 C 1.367188 -10.257812 1.421875 -9.332031 1.828125 -8.28125 C 2.210938 -7.25 2.785156 -6.53125 3.546875 -6.125 C 4.304688 -5.726562 5.160156 -5.707031 6.109375 -6.0625 Z M 6.109375 -6.0625 "/></g></g></g><g fill="#000000" fill-opacity="1"><g transform="translate(235.863978, 294.650127)"><g><path d="M 12.390625 -6.90625 L 8.96875 -5 L 0.578125 -9.328125 L 4.40625 -2.453125 L 0.984375 -0.546875 L -5.875 -12.859375 L -2.453125 -14.765625 L 5.984375 -10.34375 L 2.109375 -17.3125 L 5.53125 -19.21875 Z M 12.390625 -6.90625 "/></g></g></g><g fill="#000000" fill-opacity="1"><g transform="translate(249.623049, 286.686993)"><g><path d="M 2.46875 -5.8125 L 4.046875 0.203125 L 2.015625 1.625 L -0.46875 -3.765625 Z M 2.46875 -5.8125 "/></g></g></g><g fill="#000000" fill-opacity="1"><g transform="translate(254.983316, 282.904173)"><g/></g></g><g fill="#000000" fill-opacity="1"><g transform="translate(258.506526, 280.410618)"><g><path d="M 2.640625 -12.15625 C 3.378906 -12.570312 4.132812 -12.707031 4.90625 -12.5625 C 5.6875 -12.425781 6.351562 -12.054688 6.90625 -11.453125 C 7.707031 -10.566406 8.03125 -9.59375 7.875 -8.53125 C 7.726562 -7.476562 7.101562 -6.445312 6 -5.4375 L 0.828125 -0.75 L -8.640625 -11.1875 L -3.640625 -15.734375 C -2.566406 -16.703125 -1.507812 -17.222656 -0.46875 -17.296875 C 0.5625 -17.378906 1.46875 -16.988281 2.25 -16.125 C 2.800781 -15.507812 3.101562 -14.851562 3.15625 -14.15625 C 3.207031 -13.46875 3.035156 -12.800781 2.640625 -12.15625 Z M -1.96875 -9.6875 L -0.5 -11.015625 C 0.226562 -11.671875 0.316406 -12.300781 -0.234375 -12.90625 C -0.796875 -13.53125 -1.441406 -13.515625 -2.171875 -12.859375 L -3.640625 -11.53125 Z M 3.296875 -7.25 C 4.023438 -7.914062 4.113281 -8.554688 3.5625 -9.171875 C 3.269531 -9.484375 2.953125 -9.632812 2.609375 -9.625 C 2.265625 -9.625 1.914062 -9.460938 1.5625 -9.140625 L -0.109375 -7.625 L 1.609375 -5.734375 Z M 3.296875 -7.25 "/></g></g></g><g fill="#000000" fill-opacity="1"><g transform="translate(269.014591, 270.848301)"><g><path d="M -7.53125 -12.90625 L -1.3125 -7.609375 C -0.726562 -7.109375 -0.164062 -6.859375 0.375 -6.859375 C 0.925781 -6.867188 1.429688 -7.148438 1.890625 -7.703125 C 2.367188 -8.253906 2.566406 -8.800781 2.484375 -9.34375 C 2.398438 -9.894531 2.070312 -10.414062 1.5 -10.90625 L -4.71875 -16.203125 L -2.171875 -19.1875 L 4.046875 -13.890625 C 5.035156 -13.046875 5.703125 -12.117188 6.046875 -11.109375 C 6.390625 -10.109375 6.425781 -9.097656 6.15625 -8.078125 C 5.894531 -7.066406 5.394531 -6.125 4.65625 -5.25 C 3.914062 -4.375 3.078125 -3.738281 2.140625 -3.34375 C 1.210938 -2.957031 0.238281 -2.863281 -0.78125 -3.0625 C -1.8125 -3.269531 -2.828125 -3.800781 -3.828125 -4.65625 L -10.046875 -9.953125 Z M -7.53125 -12.90625 "/></g></g></g><g fill="#000000" fill-opacity="1"><g transform="translate(278.740597, 259.351322)"><g><path d="M 5.109375 -7.953125 L -2.46875 -7.59375 L 2.734375 -4.25 L 0.609375 -0.953125 L -11.25 -8.5625 L -9.125 -11.859375 L -4.015625 -8.578125 L -6.765625 -15.53125 L -4.328125 -19.34375 L -1.375 -11.296875 L 7.671875 -11.953125 Z M 5.109375 -7.953125 "/></g></g></g><g fill="#000000" fill-opacity="1"><g transform="translate(287.014234, 246.404872)"><g><path d="M 2.140625 -10.09375 L 0.03125 -5.546875 L 1.796875 -3.890625 L 0.0625 -0.140625 L -10.578125 -10.71875 L -8.6875 -14.8125 L 6.265625 -13.5625 L 4.53125 -9.796875 Z M -1.015625 -10.453125 L -5.78125 -10.984375 L -2.28125 -7.703125 Z M -1.015625 -10.453125 "/></g></g></g><g fill="#000000" fill-opacity="1"><g transform="translate(293.545552, 231.932402)"><g><path d="M 2.078125 -6.09375 C 1.578125 -4.53125 0.796875 -3.363281 -0.265625 -2.59375 C -1.328125 -1.820312 -2.5625 -1.617188 -3.96875 -1.984375 L -2.703125 -5.96875 C -2.222656 -5.851562 -1.835938 -5.882812 -1.546875 -6.0625 C -1.253906 -6.238281 -1.046875 -6.515625 -0.921875 -6.890625 C -0.816406 -7.242188 -0.816406 -7.554688 -0.921875 -7.828125 C -1.023438 -8.109375 -1.226562 -8.296875 -1.53125 -8.390625 C -1.914062 -8.515625 -2.273438 -8.421875 -2.609375 -8.109375 C -2.953125 -7.804688 -3.390625 -7.285156 -3.921875 -6.546875 C -4.484375 -5.765625 -4.984375 -5.144531 -5.421875 -4.6875 C -5.867188 -4.238281 -6.421875 -3.894531 -7.078125 -3.65625 C -7.734375 -3.425781 -8.488281 -3.441406 -9.34375 -3.703125 C -10.207031 -3.972656 -10.878906 -4.421875 -11.359375 -5.046875 C -11.835938 -5.671875 -12.113281 -6.414062 -12.1875 -7.28125 C -12.269531 -8.15625 -12.160156 -9.070312 -11.859375 -10.03125 C -11.359375 -11.601562 -10.597656 -12.738281 -9.578125 -13.4375 C -8.554688 -14.144531 -7.375 -14.320312 -6.03125 -13.96875 L -7.3125 -9.921875 C -7.71875 -10.023438 -8.054688 -9.988281 -8.328125 -9.8125 C -8.609375 -9.644531 -8.804688 -9.378906 -8.921875 -9.015625 C -9.015625 -8.734375 -9.003906 -8.476562 -8.890625 -8.25 C -8.785156 -8.019531 -8.582031 -7.859375 -8.28125 -7.765625 C -8.019531 -7.679688 -7.765625 -7.707031 -7.515625 -7.84375 C -7.273438 -7.988281 -7.039062 -8.179688 -6.8125 -8.421875 C -6.582031 -8.671875 -6.28125 -9.050781 -5.90625 -9.5625 C -5.34375 -10.320312 -4.832031 -10.929688 -4.375 -11.390625 C -3.914062 -11.859375 -3.363281 -12.210938 -2.71875 -12.453125 C -2.070312 -12.703125 -1.351562 -12.703125 -0.5625 -12.453125 C 0.238281 -12.203125 0.890625 -11.769531 1.390625 -11.15625 C 1.898438 -10.550781 2.222656 -9.8125 2.359375 -8.9375 C 2.492188 -8.070312 2.398438 -7.125 2.078125 -6.09375 Z M 2.078125 -6.09375 "/></g></g></g><g fill="#ffffff" fill-opacity="1"><g transform="translate(70.802068, 184.395517)"><g><path d="M 1.171875 0 L 1.171875 -9.796875 L 7.34375 -9.796875 L 7.34375 -8.328125 L 2.828125 -8.328125 L 2.828125 -5.84375 L 6.671875 -5.84375 L 6.671875 -4.359375 L 2.828125 -4.359375 L 2.828125 -1.515625 L 7.34375 -1.515625 L 7.34375 0 Z M 1.171875 0 "/></g></g></g><g fill="#ffffff" fill-opacity="1"><g transform="translate(78.951266, 184.395517)"><g><path d="M 7.984375 -2.75 C 7.984375 -2.195312 7.882812 -1.734375 7.6875 -1.359375 C 7.5 -0.984375 7.234375 -0.675781 6.890625 -0.4375 C 6.554688 -0.207031 6.164062 -0.046875 5.71875 0.046875 C 5.28125 0.148438 4.8125 0.203125 4.3125 0.203125 C 3.78125 0.203125 3.316406 0.148438 2.921875 0.046875 C 2.523438 -0.046875 2.175781 -0.175781 1.875 -0.34375 C 1.582031 -0.519531 1.328125 -0.71875 1.109375 -0.9375 C 0.898438 -1.164062 0.71875 -1.410156 0.5625 -1.671875 L 1.875 -2.609375 C 1.988281 -2.429688 2.117188 -2.257812 2.265625 -2.09375 C 2.410156 -1.925781 2.578125 -1.78125 2.765625 -1.65625 C 2.953125 -1.539062 3.171875 -1.445312 3.421875 -1.375 C 3.679688 -1.300781 3.976562 -1.265625 4.3125 -1.265625 C 4.5625 -1.265625 4.804688 -1.285156 5.046875 -1.328125 C 5.285156 -1.378906 5.5 -1.457031 5.6875 -1.5625 C 5.875 -1.675781 6.019531 -1.816406 6.125 -1.984375 C 6.238281 -2.160156 6.296875 -2.378906 6.296875 -2.640625 C 6.296875 -2.890625 6.238281 -3.09375 6.125 -3.25 C 6.019531 -3.414062 5.878906 -3.554688 5.703125 -3.671875 C 5.523438 -3.785156 5.316406 -3.878906 5.078125 -3.953125 C 4.835938 -4.035156 4.582031 -4.109375 4.3125 -4.171875 C 3.800781 -4.304688 3.332031 -4.4375 2.90625 -4.5625 C 2.476562 -4.695312 2.101562 -4.867188 1.78125 -5.078125 C 1.46875 -5.285156 1.21875 -5.550781 1.03125 -5.875 C 0.851562 -6.195312 0.765625 -6.609375 0.765625 -7.109375 C 0.765625 -7.554688 0.835938 -7.957031 0.984375 -8.3125 C 1.140625 -8.664062 1.363281 -8.96875 1.65625 -9.21875 C 1.957031 -9.46875 2.320312 -9.660156 2.75 -9.796875 C 3.1875 -9.929688 3.691406 -10 4.265625 -10 C 4.691406 -10 5.078125 -9.957031 5.421875 -9.875 C 5.773438 -9.800781 6.09375 -9.691406 6.375 -9.546875 C 6.664062 -9.398438 6.921875 -9.21875 7.140625 -9 C 7.367188 -8.78125 7.570312 -8.53125 7.75 -8.25 L 6.46875 -7.296875 C 6.207031 -7.710938 5.898438 -8.019531 5.546875 -8.21875 C 5.191406 -8.425781 4.757812 -8.53125 4.25 -8.53125 C 3.695312 -8.53125 3.257812 -8.414062 2.9375 -8.1875 C 2.613281 -7.96875 2.453125 -7.648438 2.453125 -7.234375 C 2.453125 -7.023438 2.492188 -6.847656 2.578125 -6.703125 C 2.671875 -6.566406 2.804688 -6.445312 2.984375 -6.34375 C 3.160156 -6.238281 3.382812 -6.144531 3.65625 -6.0625 C 3.9375 -5.988281 4.269531 -5.90625 4.65625 -5.8125 C 4.945312 -5.738281 5.226562 -5.660156 5.5 -5.578125 C 5.78125 -5.503906 6.039062 -5.410156 6.28125 -5.296875 C 6.53125 -5.191406 6.757812 -5.066406 6.96875 -4.921875 C 7.175781 -4.785156 7.351562 -4.613281 7.5 -4.40625 C 7.65625 -4.207031 7.773438 -3.972656 7.859375 -3.703125 C 7.941406 -3.429688 7.984375 -3.113281 7.984375 -2.75 Z M 7.984375 -2.75 "/></g></g></g><g fill="#ffffff" fill-opacity="1"><g transform="translate(70.389169, 200.71718)"><g><path d="M 5.046875 -8.296875 L 5.046875 0 L 3.390625 0 L 3.390625 -8.296875 L 0.265625 -8.296875 L 0.265625 -9.796875 L 8.171875 -9.796875 L 8.171875 -8.296875 Z M 5.046875 -8.296875 "/></g></g></g><g fill="#ffffff" fill-opacity="1"><g transform="translate(78.842811, 200.71718)"><g><path d="M 8.5 -4.90625 C 8.5 -3.9375 8.398438 -3.132812 8.203125 -2.5 C 8.003906 -1.875 7.707031 -1.375 7.3125 -1 C 6.914062 -0.632812 6.425781 -0.375 5.84375 -0.21875 C 5.269531 -0.0703125 4.597656 0 3.828125 0 L 1.09375 0 L 1.09375 -9.796875 L 3.796875 -9.796875 C 4.585938 -9.796875 5.273438 -9.710938 5.859375 -9.546875 C 6.441406 -9.378906 6.929688 -9.101562 7.328125 -8.71875 C 7.722656 -8.34375 8.015625 -7.84375 8.203125 -7.21875 C 8.398438 -6.59375 8.5 -5.820312 8.5 -4.90625 Z M 6.765625 -4.90625 C 6.765625 -5.570312 6.710938 -6.117188 6.609375 -6.546875 C 6.503906 -6.984375 6.332031 -7.332031 6.09375 -7.59375 C 5.851562 -7.851562 5.535156 -8.035156 5.140625 -8.140625 C 4.742188 -8.242188 4.253906 -8.296875 3.671875 -8.296875 L 2.734375 -8.296875 L 2.734375 -1.515625 L 3.671875 -1.515625 C 4.265625 -1.515625 4.757812 -1.566406 5.15625 -1.671875 C 5.550781 -1.785156 5.867188 -1.972656 6.109375 -2.234375 C 6.347656 -2.492188 6.515625 -2.84375 6.609375 -3.28125 C 6.710938 -3.71875 6.765625 -4.257812 6.765625 -4.90625 Z M 6.765625 -4.90625 "/></g></g></g><g fill="#ffffff" fill-opacity="1"><g transform="translate(287.01948, 184.395517)"><g><path d="M 0.875 0 L 0.875 -1.515625 C 1.207031 -1.804688 1.5625 -2.117188 1.9375 -2.453125 C 2.320312 -2.785156 2.691406 -3.117188 3.046875 -3.453125 C 3.410156 -3.785156 3.75 -4.109375 4.0625 -4.421875 C 4.375 -4.742188 4.632812 -5.035156 4.84375 -5.296875 C 4.957031 -5.441406 5.0625 -5.585938 5.15625 -5.734375 C 5.25 -5.878906 5.332031 -6.03125 5.40625 -6.1875 C 5.476562 -6.34375 5.53125 -6.503906 5.5625 -6.671875 C 5.601562 -6.847656 5.625 -7.035156 5.625 -7.234375 C 5.625 -7.441406 5.582031 -7.628906 5.5 -7.796875 C 5.425781 -7.960938 5.320312 -8.097656 5.1875 -8.203125 C 5.050781 -8.316406 4.890625 -8.398438 4.703125 -8.453125 C 4.515625 -8.503906 4.3125 -8.53125 4.09375 -8.53125 C 3.851562 -8.53125 3.640625 -8.503906 3.453125 -8.453125 C 3.265625 -8.398438 3.09375 -8.320312 2.9375 -8.21875 C 2.789062 -8.113281 2.65625 -7.992188 2.53125 -7.859375 C 2.40625 -7.722656 2.289062 -7.578125 2.1875 -7.421875 L 0.84375 -8.34375 C 0.988281 -8.570312 1.15625 -8.785156 1.34375 -8.984375 C 1.539062 -9.191406 1.769531 -9.367188 2.03125 -9.515625 C 2.289062 -9.671875 2.597656 -9.789062 2.953125 -9.875 C 3.304688 -9.957031 3.710938 -10 4.171875 -10 C 4.597656 -10 5.003906 -9.945312 5.390625 -9.84375 C 5.773438 -9.75 6.113281 -9.59375 6.40625 -9.375 C 6.695312 -9.164062 6.925781 -8.890625 7.09375 -8.546875 C 7.257812 -8.203125 7.34375 -7.789062 7.34375 -7.3125 C 7.34375 -7 7.3125 -6.707031 7.25 -6.4375 C 7.195312 -6.175781 7.125 -5.9375 7.03125 -5.71875 C 6.9375 -5.5 6.820312 -5.289062 6.6875 -5.09375 C 6.550781 -4.894531 6.40625 -4.707031 6.25 -4.53125 C 6.03125 -4.28125 5.789062 -4.03125 5.53125 -3.78125 C 5.269531 -3.53125 4.992188 -3.28125 4.703125 -3.03125 C 4.421875 -2.78125 4.128906 -2.523438 3.828125 -2.265625 C 3.535156 -2.015625 3.238281 -1.765625 2.9375 -1.515625 L 7.671875 -1.515625 L 7.671875 0 Z M 0.875 0 "/></g></g></g><g fill="#ffffff" fill-opacity="1"><g transform="translate(295.487282, 184.395517)"><g><path d="M 8.203125 -4.890625 C 8.203125 -4.015625 8.128906 -3.253906 7.984375 -2.609375 C 7.835938 -1.972656 7.609375 -1.441406 7.296875 -1.015625 C 6.992188 -0.597656 6.609375 -0.285156 6.140625 -0.078125 C 5.671875 0.117188 5.125 0.21875 4.5 0.21875 C 3.863281 0.21875 3.3125 0.117188 2.84375 -0.078125 C 2.382812 -0.285156 2 -0.597656 1.6875 -1.015625 C 1.382812 -1.429688 1.160156 -1.957031 1.015625 -2.59375 C 0.867188 -3.238281 0.796875 -4 0.796875 -4.875 C 0.796875 -5.75 0.867188 -6.503906 1.015625 -7.140625 C 1.160156 -7.785156 1.382812 -8.316406 1.6875 -8.734375 C 2 -9.148438 2.382812 -9.457031 2.84375 -9.65625 C 3.3125 -9.863281 3.863281 -9.96875 4.5 -9.96875 C 5.125 -9.96875 5.671875 -9.863281 6.140625 -9.65625 C 6.609375 -9.457031 6.992188 -9.148438 7.296875 -8.734375 C 7.609375 -8.316406 7.835938 -7.785156 7.984375 -7.140625 C 8.128906 -6.503906 8.203125 -5.753906 8.203125 -4.890625 Z M 6.484375 -4.890625 C 6.484375 -6.148438 6.320312 -7.070312 6 -7.65625 C 5.675781 -8.25 5.175781 -8.546875 4.5 -8.546875 C 3.8125 -8.546875 3.304688 -8.25 2.984375 -7.65625 C 2.660156 -7.0625 2.5 -6.132812 2.5 -4.875 C 2.5 -3.613281 2.660156 -2.6875 2.984375 -2.09375 C 3.304688 -1.5 3.8125 -1.203125 4.5 -1.203125 C 5.175781 -1.203125 5.675781 -1.5 6 -2.09375 C 6.320312 -2.695312 6.484375 -3.628906 6.484375 -4.890625 Z M 6.484375 -4.890625 "/></g></g></g><g fill="#ffffff" fill-opacity="1"><g transform="translate(287.01948, 200.71718)"><g><path d="M 0.875 0 L 0.875 -1.515625 C 1.207031 -1.804688 1.5625 -2.117188 1.9375 -2.453125 C 2.320312 -2.785156 2.691406 -3.117188 3.046875 -3.453125 C 3.410156 -3.785156 3.75 -4.109375 4.0625 -4.421875 C 4.375 -4.742188 4.632812 -5.035156 4.84375 -5.296875 C 4.957031 -5.441406 5.0625 -5.585938 5.15625 -5.734375 C 5.25 -5.878906 5.332031 -6.03125 5.40625 -6.1875 C 5.476562 -6.34375 5.53125 -6.503906 5.5625 -6.671875 C 5.601562 -6.847656 5.625 -7.035156 5.625 -7.234375 C 5.625 -7.441406 5.582031 -7.628906 5.5 -7.796875 C 5.425781 -7.960938 5.320312 -8.097656 5.1875 -8.203125 C 5.050781 -8.316406 4.890625 -8.398438 4.703125 -8.453125 C 4.515625 -8.503906 4.3125 -8.53125 4.09375 -8.53125 C 3.851562 -8.53125 3.640625 -8.503906 3.453125 -8.453125 C 3.265625 -8.398438 3.09375 -8.320312 2.9375 -8.21875 C 2.789062 -8.113281 2.65625 -7.992188 2.53125 -7.859375 C 2.40625 -7.722656 2.289062 -7.578125 2.1875 -7.421875 L 0.84375 -8.34375 C 0.988281 -8.570312 1.15625 -8.785156 1.34375 -8.984375 C 1.539062 -9.191406 1.769531 -9.367188 2.03125 -9.515625 C 2.289062 -9.671875 2.597656 -9.789062 2.953125 -9.875 C 3.304688 -9.957031 3.710938 -10 4.171875 -10 C 4.597656 -10 5.003906 -9.945312 5.390625 -9.84375 C 5.773438 -9.75 6.113281 -9.59375 6.40625 -9.375 C 6.695312 -9.164062 6.925781 -8.890625 7.09375 -8.546875 C 7.257812 -8.203125 7.34375 -7.789062 7.34375 -7.3125 C 7.34375 -7 7.3125 -6.707031 7.25 -6.4375 C 7.195312 -6.175781 7.125 -5.9375 7.03125 -5.71875 C 6.9375 -5.5 6.820312 -5.289062 6.6875 -5.09375 C 6.550781 -4.894531 6.40625 -4.707031 6.25 -4.53125 C 6.03125 -4.28125 5.789062 -4.03125 5.53125 -3.78125 C 5.269531 -3.53125 4.992188 -3.28125 4.703125 -3.03125 C 4.421875 -2.78125 4.128906 -2.523438 3.828125 -2.265625 C 3.535156 -2.015625 3.238281 -1.765625 2.9375 -1.515625 L 7.671875 -1.515625 L 7.671875 0 Z M 0.875 0 "/></g></g></g><g fill="#ffffff" fill-opacity="1"><g transform="translate(295.487282, 200.71718)"><g><path d="M 7.015625 -1.890625 L 7.015625 0 L 5.4375 0 L 5.4375 -1.890625 L 0.453125 -1.890625 L 0.453125 -3.453125 L 5.390625 -9.796875 L 7.015625 -9.796875 L 7.015625 -3.328125 L 8.296875 -3.328125 L 8.296875 -1.890625 Z M 5.4375 -7.546875 L 2.078125 -3.328125 L 5.4375 -3.328125 Z M 5.4375 -7.546875 "/></g></g></g></svg>